<svg xmlns="http://www.w3.org/2000/svg" version="1.1" xmlns:xlink="http://www.w3.org/1999/xlink" xmlns:svgjs="http://svgjs.dev/svgjs" width="100%" height="100%" viewBox="0 0 1000 600"><rect width="1000" height="600" x="0" y="0" fill="#d2302c"/><g><rect width="333.3333333333333" height="333.3333333333333" y="348.2052119587507" fill="#f7f7f9" transform="matrix(0.38345561233189324,0,0,0.38345561233189324,0,102.56948647284791)" x="325.9829711914062"/><path d="M525.6555902104569 589.8718935626182L459.6436874470872 589.8718935626182L459.6436874470872 439.8718981039243L525.0008283255181 439.8718981039243L525.0008283255181 450.37785016680505L487.5008294608446 445.4373741259036Q477.6496392829027 444.15761225988695 474.22702033890465 444.15761225988695L474.22702033890465 444.15761225988695L474.22702033890465 509.5147531383179Q476.9948773979639 509.5147531383179 487.5008294608446 508.8599912533791L487.5008294608446 508.8599912533791L522.6496379205109 506.7171341753978L522.6496379205109 516.5980862572006L487.5008294608446 514.4552291792193Q476.9948773979639 513.8004672942805 474.22702033890465 513.8004672942805L474.22702033890465 513.8004672942805L474.22702033890465 585.5861794066554Q478.0663059369546 585.5861794066554 487.70916278787064 584.3064175406389L487.70916278787064 584.3064175406389L525.6555902104569 579.3659414997373L525.6555902104569 589.8718935626182Z " fill="#d2302c" transform="matrix(0.38345561233189324,0,0,0.38345561233189324,0,102.56948647284791)"/><path d="M806.1177824829791 586.9817838038332L742.6496383354469 586.9817838038332L742.6496383354469 442.7620153171052L805.4882517475212 442.7620153171052L805.4882517475212 452.86312211786213L769.4333096258391 448.1130265684977Q759.9617335605402 446.8825801310117 756.6710047161009 446.8825801310117L756.6710047161009 446.8825801310117L756.6710047161009 509.72119354308603Q759.3322028250822 509.72119354308603 769.4333096258391 509.0916628076281L769.4333096258391 509.0916628076281L803.2276641065586 507.0313804006749L803.2276641065586 516.5315714994038L769.4333096258391 514.4712890924504Q759.3322028250822 513.8417583569926 756.6710047161009 513.8417583569926L756.6710047161009 513.8417583569926L756.6710047161009 582.8612189899268Q760.3623440285588 582.8612189899268 769.6336148598485 581.6307725524407L769.6336148598485 581.6307725524407L806.1177824829791 576.8806770030762L806.1177824829791 586.9817838038332ZM863.3764643762217 586.9817838038332L849.3837130289975 586.9817838038332L849.3837130289975 442.7620153171052L909.9331237666794 442.7620153171052L909.9331237666794 452.86312211786213L875.7381588179413 448.1130265684977Q866.4668879866516 446.8825801310117 863.3764643762217 446.8825801310117L863.3764643762217 446.8825801310117L863.3764643762217 511.3808654820206Q866.667193220661 511.3808654820206 876.16738431939 510.7513347465627L876.16738431939 510.7513347465627L907.6725361257168 508.6910523396094L907.6725361257168 518.1626284049084L876.16738431939 516.1023459979551Q866.667193220661 515.5014302959271 863.3764643762217 515.5014302959271L863.3764643762217 515.5014302959271L863.3764643762217 586.9817838038332ZM950.1086307022679 586.9817838038332L950.1086307022679 442.7620153171052L977.7221379621276 442.7620153171052Q999.5554084691461 442.7620153171052 1011.6309525765665 451.91882601467523Q1023.6778816505571 461.1042517456751 1023.6778816505571 477.58651100130123L1023.6778816505571 477.58651100130123Q1023.6778816505571 490.3488159110394 1016.1521278584918 498.79025077286184Q1008.6263740664264 507.2603006681141 994.4047024517629 510.12180401110476L994.4047024517629 510.12180401110476L994.4047024517629 511.3808654820206Q1008.0254583643983 514.0420635910019 1016.66719846023 524.1431703917589Q1025.308938556062 534.2442771925158 1029.6584236374074 549.0668645092073L1029.6584236374074 549.0668645092073Q1033.5500681838748 562.6590053884129 1037.3844826634822 570.1847591804781Q1041.1902821096596 577.7105129725435 1045.8259175253047 581.0012418169827Q1050.4615529409493 584.291970661422 1056.8427053958185 585.7513373663471L1056.8427053958185 585.7513373663471L1056.8427053958185 586.9817838038332L1048.401270533996 586.9817838038332Q1039.330304936716 586.9817838038332 1033.4642230835852 583.691054959394Q1027.5981412304545 580.4003261149549 1023.4775764165478 572.5598069551604Q1019.3570116026413 564.7192877953661 1015.6370572567535 550.9268416821512L1015.6370572567535 550.9268416821512Q1009.656515269903 529.6944868771607 999.7843287365853 520.8524415473196Q989.8835271698377 511.98178118404866 975.6618555551743 511.98178118404866L975.6618555551743 511.98178118404866L974.4314091176883 511.98178118404866L974.4314091176883 508.29044187159076L975.6618555551743 508.29044187159076Q1008.8266793004358 508.29044187159076 1008.8266793004358 477.7868162353106L1008.8266793004358 477.7868162353106Q1008.8266793004358 447.712416100479 977.7221379621276 447.712416100479L977.7221379621276 447.712416100479L964.129997082922 447.712416100479L964.129997082922 586.9817838038332L950.1086307022679 586.9817838038332ZM1145.8354593628274 586.9817838038332L1082.395930248725 586.9817838038332L1082.395930248725 442.7620153171052L1145.2345436607993 442.7620153171052L1145.2345436607993 452.86312211786213L1109.1796015391174 448.1130265684977Q1099.7080254738185 446.8825801310117 1096.388681595949 446.8825801310117L1096.388681595949 446.8825801310117L1096.388681595949 509.72119354308603Q1099.0784947383604 509.72119354308603 1109.1796015391174 509.0916628076281L1109.1796015391174 509.0916628076281L1142.9739560198368 507.0313804006749L1142.9739560198368 516.5315714994038L1109.1796015391174 514.4712890924504Q1099.0784947383604 513.8417583569926 1096.388681595949 513.8417583569926L1096.388681595949 513.8417583569926L1096.388681595949 582.8612189899268Q1100.1086359418368 582.8612189899268 1109.3799067731265 581.6307725524407L1109.3799067731265 581.6307725524407L1145.8354593628274 576.8806770030762L1145.8354593628274 586.9817838038332ZM1310.05713621706 442.7620153171052L1324.8797235337515 442.7620153171052L1324.8797235337515 586.9817838038332L1310.8869721865271 586.9817838038332L1310.8869721865271 454.72309929080603L1309.6279107156115 454.72309929080603L1259.7805224807144 550.2973109466932L1253.3993700258457 550.2973109466932L1196.741603834631 466.05465252904895L1195.5111573971449 466.05465252904895L1200.03233267907 586.9817838038332L1186.010966298416 586.9817838038332L1191.161672315799 439.8718969406847L1195.2822371297057 439.8718969406847L1260.1811329487332 536.304559599469L1261.4401944196493 536.304559599469L1310.05713621706 442.7620153171052ZM1368.1456540797699 514.8718995604693L1368.1456540797699 514.8718995604693Q1368.1456540797699 499.0191710403011 1373.8114306988914 485.31257002737595Q1379.477207318013 471.6059690144508 1389.6927742524895 461.41901711340415Q1399.879726153536 451.20345017892754 1413.5863271664612 445.5376735598061Q1427.2929281793863 439.8718969406847 1443.1456566995544 439.8718969406847L1443.1456566995544 439.8718969406847Q1458.9983852197224 439.8718969406847 1472.7049862326476 445.5376735598061Q1486.4115872455727 451.20345017892754 1496.5985391466193 461.41901711340415Q1506.8141060810963 471.6059690144508 1512.4798827002173 485.31257002737595Q1518.1456593193388 499.0191710403011 1518.1456593193388 514.8718995604693L1518.1456593193388 514.8718995604693Q1518.1456593193388 530.7246280806373 1512.4798827002173 544.4312290935625Q1506.8141060810963 558.1378301064876 1496.5985391466193 568.3247820075342Q1486.4115872455727 578.5403489420107 1472.7049862326476 584.2061255611322Q1458.9983852197224 589.8719021802538 1443.1456566995544 589.8719021802538L1443.1456566995544 589.8719021802538Q1427.2929281793863 589.8719021802538 1413.5863271664612 584.2061255611322Q1399.879726153536 578.5403489420107 1389.6927742524895 568.3247820075342Q1379.477207318013 558.1378301064876 1373.8114306988914 544.4312290935625Q1368.1456540797699 530.7246280806373 1368.1456540797699 514.8718995604693ZM1383.7980773659287 514.8718995604693L1383.7980773659287 514.8718995604693Q1383.7980773659287 535.8753340980204 1391.2379860577043 551.6422175178989Q1398.64927971605 567.4091009377773 1412.0411153612463 576.1653011673286Q1425.4329510064422 584.9215013968799 1443.1456566995544 584.9215013968799L1443.1456566995544 584.9215013968799Q1460.8583623926665 584.9215013968799 1474.2501980378624 576.1653011673286Q1487.6420336830588 567.4091009377773 1495.0533273414044 551.5563724176092Q1502.49323603318 535.6750288640112 1502.49323603318 514.8718995604693L1502.49323603318 514.8718995604693Q1502.49323603318 494.0687702569273 1495.0533273414044 478.30188683704887Q1487.6420336830588 462.5350034171705 1474.2501980378624 453.69295808732943Q1460.8583623926665 444.82229772405844 1443.1456566995544 444.82229772405844L1443.1456566995544 444.82229772405844Q1425.4329510064422 444.82229772405844 1412.1269604615359 453.5784979536098Q1398.8495849500596 462.3346981831611 1391.323831157994 478.10158160303956Q1383.7980773659287 493.8684650229179 1383.7980773659287 514.8718995604693ZM1604.677520411376 589.8719021802538L1539.14909385689 442.7620153171052L1554.6012119090396 442.7620153171052L1610.8583676322355 570.9001350162259L1612.0888140697216 570.9001350162259L1659.275004195637 442.7620153171052L1674.7271222477866 442.7620153171052L1609.198695693301 589.8719021802538L1604.677520411376 589.8719021802538ZM1675.9575686852722 578.3400437080015L1675.9575686852722 578.3400437080015Q1675.9575686852722 573.5899481586371 1679.0479922957024 570.6139846819267Q1682.1384159061322 567.6094061717865 1686.6595911880577 567.6094061717865L1686.6595911880577 567.6094061717865Q1691.409686737422 567.6094061717865 1694.385650214132 570.6139846819267Q1697.3902287242722 573.5899481586371 1697.3902287242722 578.3400437080015L1697.3902287242722 578.3400437080015Q1697.3902287242722 582.8612189899268 1694.385650214132 585.9516426003565Q1691.409686737422 589.0420662107865 1686.6595911880577 589.0420662107865L1686.6595911880577 589.0420662107865Q1682.1384159061322 589.0420662107865 1679.0479922957024 585.9516426003565Q1675.9575686852722 582.8612189899268 1675.9575686852722 578.3400437080015ZM1728.094159594562 582.460608521908L1728.094159594562 582.460608521908L1729.324606032048 570.0989140801885L1730.555052469534 570.0989140801885Q1738.5958768633377 577.0809822370857 1748.6969836640942 581.0012418169827Q1758.7694754314211 584.9215013968799 1768.670276998169 584.9215013968799L1768.670276998169 584.9215013968799Q1782.6916433788233 584.9215013968799 1791.333383474655 577.1954423708053Q1799.9751235704866 569.4693833447304 1799.9751235704866 556.4781581675531L1799.9751235704866 556.4781581675531Q1799.9751235704866 549.2671697432166 1796.7988548597673 543.0863225223568Q1793.5939711156175 536.9054753014971 1786.2971375909915 530.5243228466279Q1778.9716890329355 524.1431703917589 1766.2093841231972 516.7318767334132L1766.2093841231972 516.7318767334132Q1757.3387237599263 511.58117071603 1749.2978993661222 505.9153940969085Q1741.2570749723186 500.24961747778707 1736.1063689549355 492.7238636857217Q1730.9556629375525 485.1981098936563 1730.9556629375525 474.6963926248807L1730.9556629375525 474.6963926248807Q1730.9556629375525 459.0439693387219 1742.2872161757955 449.4579331397033Q1753.6187694140385 439.8718969406847 1772.1613110766175 439.8718969406847L1772.1613110766175 439.8718969406847Q1780.4024407044308 439.8718969406847 1789.9026318031597 441.617413979909Q1799.3742078684586 443.3915460525631 1804.5249138858417 446.0527441615444L1804.5249138858417 446.0527441615444L1803.4947726823652 457.5846026337967L1802.2643262448792 457.5846026337967Q1790.5035475051877 444.82229772405844 1772.1613110766175 444.82229772405844L1772.1613110766175 444.82229772405844Q1758.9983956988608 444.82229772405844 1750.9575713050572 451.5182155466565Q1742.9167469112535 458.2141333692546 1742.9167469112535 469.54568660749754L1742.9167469112535 469.54568660749754Q1742.9167469112535 477.9871214693199 1747.352077092889 484.08212358989Q1751.7874072745244 490.1485106770301 1758.7694754314211 494.9844513266843Q1765.7801586217483 499.82039197633844 1773.8209830155524 504.37018229169354L1773.8209830155524 504.37018229169354Q1783.0922538468421 509.72119354308603 1791.848454076393 515.7017355299365Q1800.6046543059447 521.6822775167868 1806.2704309250662 530.0092522448897Q1811.9362075441877 538.3648420064224 1811.9362075441877 550.9268416821512L1811.9362075441877 550.9268416821512Q1811.9362075441877 562.4587001544035 1806.585196292795 571.2149003839547Q1801.2341850414027 579.9711006135062 1791.4478436083746 584.9215013968799Q1781.6615021753464 589.8719021802538 1768.670276998169 589.8719021802538L1768.670276998169 589.8719021802538Q1760.429147370356 589.8719021802538 1749.2978993661222 587.8116197733004Q1738.1666513618889 585.7513373663471 1728.094159594562 582.460608521908ZM1866.533691328449 586.9817838038332L1852.5123249477947 586.9817838038332L1852.5123249477947 442.7620153171052L1866.533691328449 442.7620153171052L1866.533691328449 509.5208883090767L1953.0655524204858 509.5208883090767L1953.0655524204858 442.7620153171052L1967.0869188011397 442.7620153171052L1967.0869188011397 586.9817838038332L1953.0655524204858 586.9817838038332L1953.0655524204858 514.4712890924504L1866.533691328449 514.4712890924504L1866.533691328449 586.9817838038332ZM2010.352849347158 514.8718995604693L2010.352849347158 514.8718995604693Q2010.352849347158 499.0191710403011 2016.0186259662796 485.31257002737595Q2021.6844025854011 471.6059690144508 2031.8713544864477 461.41901711340415Q2042.0583063874942 451.20345017892754 2055.7649074004194 445.5376735598061Q2069.471508413345 439.8718969406847 2085.3242369335126 439.8718969406847L2085.3242369335126 439.8718969406847Q2101.2055804871106 439.8718969406847 2114.9121815000362 445.5376735598061Q2128.5901674795314 451.20345017892754 2138.8057344140075 461.41901711340415Q2148.9926863150545 471.6059690144508 2154.658462934176 485.31257002737595Q2160.3242395532975 499.0191710403011 2160.3242395532975 514.8718995604693L2160.3242395532975 514.8718995604693Q2160.3242395532975 530.7246280806373 2154.658462934176 544.4312290935625Q2148.9926863150545 558.1378301064876 2138.8057344140075 568.3247820075342Q2128.5901674795314 578.5403489420107 2114.9121815000362 584.2061255611322Q2101.2055804871106 589.8719021802538 2085.3242369335126 589.8719021802538L2085.3242369335126 589.8719021802538Q2069.471508413345 589.8719021802538 2055.7649074004194 584.2061255611322Q2042.0583063874942 578.5403489420107 2031.8713544864477 568.3247820075342Q2021.6844025854011 558.1378301064876 2016.0186259662796 544.4312290935625Q2010.352849347158 530.7246280806373 2010.352849347158 514.8718995604693ZM2026.005272633317 514.8718995604693L2026.005272633317 514.8718995604693Q2026.005272633317 535.8753340980204 2033.4165662916625 551.6422175178989Q2040.8278599500081 567.4091009377773 2054.2196955952045 576.1653011673286Q2067.611531240401 584.9215013968799 2085.3242369335126 584.9215013968799L2085.3242369335126 584.9215013968799Q2103.0655576600548 584.9215013968799 2116.4573933052507 576.1653011673286Q2129.849228950447 567.4091009377773 2137.260522608793 551.5563724176092Q2144.6718162671386 535.6750288640112 2144.6718162671386 514.8718995604693L2144.6718162671386 514.8718995604693Q2144.6718162671386 494.0687702569273 2137.260522608793 478.30188683704887Q2129.849228950447 462.5350034171705 2116.4573933052507 453.69295808732943Q2103.0655576600548 444.82229772405844 2085.3242369335126 444.82229772405844L2085.3242369335126 444.82229772405844Q2067.611531240401 444.82229772405844 2054.334155728924 453.5784979536098Q2041.0281651840178 462.3346981831611 2033.5310264253822 478.10158160303956Q2026.005272633317 493.8684650229179 2026.005272633317 514.8718995604693ZM2217.61153647997 586.9817838038332L2203.5901700993154 586.9817838038332L2203.5901700993154 442.7620153171052L2229.343700186231 442.7620153171052Q2254.26739430368 442.7620153171052 2268.088455450325 453.37819271960046Q2281.8809015635393 463.9943701220957 2281.8809015635393 482.9375222526937L2281.8809015635393 482.9375222526937Q2281.8809015635393 501.8806743832917 2268.088455450325 512.4968517857869Q2254.26739430368 523.1130291882822 2229.343700186231 523.1130291882822L2229.343700186231 523.1130291882822L2217.61153647997 523.1130291882822L2217.61153647997 586.9817838038332ZM2229.343700186231 447.712416100479L2229.343700186231 447.712416100479L2217.61153647997 447.712416100479L2217.61153647997 518.1626284049084L2229.343700186231 518.1626284049084Q2267.058314246848 518.1626284049084 2267.058314246848 482.9375222526937L2267.058314246848 482.9375222526937Q2267.058314246848 447.712416100479 2229.343700186231 447.712416100479Z " fill="#f7f7f9" transform="matrix(0.38345561233189324,0,0,0.38345561233189324,0,102.56948647284791)"/></g></svg>